<?xml version="1.0" encoding="UTF-8"?>
<svg version="1.1" viewBox="0 0 960 194" xmlns="http://www.w3.org/2000/svg">
<g transform="matrix(.99883 0 0 1.5479 .51923 0)" fill="none" font-family="none" font-size="none" font-weight="none" stroke-miterlimit="10" stroke-width="none" text-anchor="none" style="mix-blend-mode:normal">
<path d="m0 0v144" fill="none" stroke="#000" stroke-width="1"/>
<path d="m12.994 138.5c-0.391-2e-3 -0.78303-3.9e-4 -1.1758 8e-3 -0.1654 2e-3 -0.3307 6e-3 -0.49609 8e-3 5.37e-4 0.0615 0.0039 0.11906 0.0039 0.1817 0 1.452-0.13806 2.5435-0.41406 3.2755-0.276 0.732-0.7853 1.0977-1.5293 1.0977-0.58321 0-1.0248-0.23561-1.3262-0.70028l2.3516-3.8408c-0.71497 9e-3 -1.4297 0.0208-2.1445 0.0328l-0.80273 1.3312c-0.02633-0.37827-0.041016-0.78646-0.041016-1.2327 0-0.0298 0.00184-0.0563 0.00195-0.0858-0.83976 0.0158-1.6801 0.0333-2.5195 0.0555 0.00972 1.3821 0.1704 2.5577 0.48438 3.5228 0.324 0.984 0.82214 1.7337 1.4941 2.2497 0.672 0.516 1.5227 0.77346 2.5547 0.77346 0.828 0 1.5314-0.15485 2.1074-0.46685 0.576-0.324 1.0312-0.77409 1.3672-1.3501 0.348-0.576 0.59986-1.2609 0.75586-2.0529 0.156-0.804 0.23438-1.6859 0.23438-2.6459 0-0.0489-0.0016-0.0955-2e-3 -0.14384-0.3013-8e-3 -0.60207-0.0145-0.9043-0.0164z"/>
<path d="m96 0v144" fill="none" stroke="#000" stroke-width="1"/>
<path d="m102.58 143.12-0.54297 0.058v1.8182h1.1445c-0.13118-0.51158-0.28462-1.0206-0.47461-1.5255-0.042-0.11699-0.085-0.23376-0.12695-0.35077z"/>
<path d="m192 0v144" fill="none" stroke="#000" stroke-width="1"/>
<path d="m197.82 142.31-0.79883 0.79743v1.8901h1.2422c-0.13984-0.89616-0.28238-1.7927-0.44336-2.6876z"/>
<path d="m288 0v144" fill="none" stroke="#000" stroke-width="1"/>
<path d="m293.28 142.17v2.304c0.34242 0.13554 0.69532 0.24961 1.0547 0.34698-0.10038-0.67385-0.20675-1.3476-0.33203-2.0201-0.0257-0.12015-0.0509-0.24061-0.0762-0.36086-0.22202-0.0823-0.43925-0.17111-0.64649-0.27002z"/>
<path d="m384 0v144" fill="none" stroke="#000" stroke-width="1"/>
<path d="m391.79 135.61-3.0723 4.8338v1.8889h3.4258c-0.0236-0.70217-0.0505-1.4041-0.0879-2.1059h-0.94531l0.85742-1.4346c-0.0479-0.66459-0.10178-1.3295-0.17187-1.9936-0.0444-0.4208-0.0411-0.81493-6e-3 -1.1886z"/>
<path d="m480 0v144" fill="none" stroke="#000" stroke-width="1"/>
<path d="m486.09 132.15-0.50391 6.5523 0.90625 0.45297c0.36018-0.72423 0.74531-1.4431 1.1504-2.1576 0.22982-0.42647 0.45709-0.85377 0.68555-1.2807l0.10156-1.3349h0.60157c0.31549-0.60696 0.62815-1.2144 0.92187-1.8258 0.0673-0.14009 0.1394-0.27359 0.21289-0.40628z"/>
<path d="m576 0v144" fill="none" stroke="#000" stroke-width="1"/>
<path d="m581.35 136.17c-0.23804 0.85701-0.35938 1.8421-0.35938 2.9588 0 0.996 0.10822 1.8722 0.32422 2.6282s0.52197 1.3918 0.91797 1.9078c0.36544 0.45142 0.78857 0.80604 1.2695 1.0649-0.25007-1.7106-0.55536-3.4174-1.0469-5.1063-0.34504-1.154-0.70464-2.3069-1.1055-3.4534z"/>
<path d="m672 0v144" fill="none" stroke="#000" stroke-width="1"/>
<path d="m685.8 132.17c0.031 0.0494 0.0652 0.0981 0.0957 0.14763v-0.14763zm-6.5938 10.599-1.0156 2.2358h1.8848c-0.28119-0.74655-0.57062-1.4918-0.86914-2.2358z"/>
<path d="m768 0v144" fill="none" stroke="#000" stroke-width="1"/>
<path d="m773.12 141.06c-0.0368 0.21904-0.0566 0.44757-0.0566 0.6864 0 0.54852 0.0911 1.0255 0.26953 1.4359-0.0655-0.70767-0.13637-1.4151-0.21289-2.1223z"/>
<path d="m864 0v144" fill="none" stroke="#000" stroke-width="1"/>
<path d="m870.36 132.93c-0.3532 0.31057-0.64117 0.68974-0.86328 1.1419-0.336 0.672-0.50391 1.4708-0.50391 2.3948 0 1.236 0.29286 2.2193 0.88086 2.9513 0.12806 0.15366 0.26978 0.29047 0.42188 0.41134v-6.0413c0-0.30038 0.026-0.58334 0.0645-0.858zm-0.5039 9.9439v2.1791c0.13377 0.0315 0.28182 0.0534 0.4414 0.0694-1e-3 -0.061 6e-5 -0.122-2e-3 -0.18296v-1.9772c-0.14624-0.0259-0.29321-0.0551-0.43945-0.0883z"/>
<path d="m960 0v144" fill="none" stroke="#000" stroke-width="1"/>
<path d="m950.55 131.97c-0.0245 0-0.0479 2e-3 -0.0723 3e-3 0.053 0.16312 0.1026 0.32911 0.14453 0.50218 0.13842 0.57135 0.2563 1.1448 0.36524 1.7185 0.32418 0.0747 0.58597 0.24507 0.78515 0.51353 5e-3 6e-3 9e-3 0.0128 0.0137 0.0189l-0.55078 0.91225c0.0768 0.49608 0.14987 0.99189 0.21289 1.4889 0.0564 0.48635 0.0973 0.9728 0.13281 1.4599l0.87891-1.4346c0.0436 0.47286 0.0684 0.98617 0.0684 1.5507 0 1.452-0.13806 2.5435-0.41406 3.2755-0.0949 0.25181-0.21882 0.45686-0.36914 0.62205 0.0513 0.80303 0.17405 1.6034 0.27929 2.4049 0.25872-0.0738 0.49924-0.17024 0.72071-0.2902 0.576-0.324 1.0312-0.77409 1.3672-1.3501 0.34799-0.576 0.59985-1.2609 0.75585-2.0529 0.156-0.804 0.23438-1.6859 0.23438-2.6459 0-1.452-0.16233-2.6701-0.48633-3.6541-0.324-0.996-0.82214-1.7514-1.4941-2.2674s-1.5283-0.77472-2.5723-0.77472zm-11.143 0.18043-3.7812 2.0163 1.1719 2.1059 1.2227-0.66621c0.132-0.072 0.28317-0.15635 0.45117-0.25235 0.168-0.108 0.34148-0.22194 0.52148-0.34194l-0.0371 0.82898c-0.012 0.276-0.0231 0.55738-0.0352 0.84538v6.2306l-2.4844 0.26749v1.8182h4.5781c-0.14591-1.0954-0.28887-2.1908-0.25977-3.2919-0.041-1.337-0.0916-2.6745-0.24218-4.0086-0.17353-1.3882-0.4016-2.7736-0.73438-4.1499-0.12056-0.49864-0.1708-0.96454-0.16992-1.4018z"/>
</g>
<g transform="matrix(.99883 0 0 1 .51923 0)" fill="none" font-family="none" font-size="none" font-weight="none" stroke="#000" stroke-miterlimit="10" text-anchor="none" style="mix-blend-mode:normal">
<path d="m0 0v72"/>
<path d="m48 0v72"/>
<path d="m96 0v72"/>
<path d="m144 0v72"/>
<path d="m192 0v72"/>
<path d="m240 0v72"/>
<path d="m288 0v72"/>
<path d="m336 0v72"/>
<path d="m384 0v72"/>
<path d="m432 0v72"/>
<path d="m480 0v72"/>
<path d="m528 0v72"/>
<path d="m576 0v72"/>
<path d="m624 0v72"/>
<path d="m672 0v72"/>
<path d="m720 0v72"/>
<path d="m768 0v72"/>
<path d="m816 0v72"/>
<path d="m864 0v72"/>
<path d="m912 0v72"/>
<path d="m960 0v72"/>
</g>
<g transform="matrix(.99883 0 0 1 .51923 0)" fill="none" font-family="none" font-size="none" font-weight="none" stroke="#000" stroke-miterlimit="10" text-anchor="none" style="mix-blend-mode:normal">
<path d="m0 0v36"/>
<path d="m24 0v36"/>
<path d="m48 0v36"/>
<path d="m72 0v36"/>
<path d="m96 0v36"/>
<path d="m120 0v36"/>
<path d="m144 0v36"/>
<path d="m168 0v36"/>
<path d="m192 0v36"/>
<path d="m216 0v36"/>
<path d="m240 0v36"/>
<path d="m264 0v36"/>
<path d="m288 0v36"/>
<path d="m312 0v36"/>
<path d="m336 0v36"/>
<path d="m360 0v36"/>
<path d="m384 0v36"/>
<path d="m408 0v36"/>
<path d="m432 0v36"/>
<path d="m456 0v36"/>
<path d="m480 0v36"/>
<path d="m504 0v36"/>
<path d="m528 0v36"/>
<path d="m552 0v36"/>
<path d="m576 0v36"/>
<path d="m600 0v36"/>
<path d="m624 0v36"/>
<path d="m648 0v36"/>
<path d="m672 0v36"/>
<path d="m696 0v36"/>
<path d="m720 0v36"/>
<path d="m744 0v36"/>
<path d="m768 0v36"/>
<path d="m792 0v36"/>
<path d="m816 0v36"/>
<path d="m840 0v36"/>
<path d="m864 0v36"/>
<path d="m888 0v36"/>
<path d="m912 0v36"/>
<path d="m936 0v36"/>
<path d="m960 0v36"/>
</g>
<g transform="matrix(.99883 0 0 1 .51923 0)" fill="none" font-family="none" font-size="none" font-weight="none" stroke="#000" stroke-miterlimit="10" text-anchor="none" style="mix-blend-mode:normal">
<path d="m0 0v18"/>
<path d="m12 0v18"/>
<path d="m24 0v18"/>
<path d="m36 0v18"/>
<path d="m48 0v18"/>
<path d="m60 0v18"/>
<path d="m72 0v18"/>
<path d="m84 0v18"/>
<path d="m96 0v18"/>
<path d="m108 0v18"/>
<path d="m120 0v18"/>
<path d="m132 0v18"/>
<path d="m144 0v18"/>
<path d="m156 0v18"/>
<path d="m168 0v18"/>
<path d="m180 0v18"/>
<path d="m192 0v18"/>
<path d="m204 0v18"/>
<path d="m216 0v18"/>
<path d="m228 0v18"/>
<path d="m240 0v18"/>
<path d="m252 0v18"/>
<path d="m264 0v18"/>
<path d="m276 0v18"/>
<path d="m288 0v18"/>
<path d="m300 0v18"/>
<path d="m312 0v18"/>
<path d="m324 0v18"/>
<path d="m336 0v18"/>
<path d="m348 0v18"/>
<path d="m360 0v18"/>
<path d="m372 0v18"/>
<path d="m384 0v18"/>
<path d="m396 0v18"/>
<path d="m408 0v18"/>
<path d="m420 0v18"/>
<path d="m432 0v18"/>
<path d="m444 0v18"/>
<path d="m456 0v18"/>
<path d="m468 0v18"/>
<path d="m480 0v18"/>
<path d="m492 0v18"/>
<path d="m504 0v18"/>
<path d="m516 0v18"/>
<path d="m528 0v18"/>
<path d="m540 0v18"/>
<path d="m552 0v18"/>
<path d="m564 0v18"/>
<path d="m576 0v18"/>
<path d="m588 0v18"/>
<path d="m600 0v18"/>
<path d="m612 0v18"/>
<path d="m624 0v18"/>
<path d="m636 0v18"/>
<path d="m648 0v18"/>
<path d="m660 0v18"/>
<path d="m672 0v18"/>
<path d="m684 0v18"/>
<path d="m696 0v18"/>
<path d="m708 0v18"/>
<path d="m720 0v18"/>
<path d="m732 0v18"/>
<path d="m744 0v18"/>
<path d="m756 0v18"/>
<path d="m768 0v18"/>
<path d="m780 0v18"/>
<path d="m792 0v18"/>
<path d="m804 0v18"/>
<path d="m816 0v18"/>
<path d="m828 0v18"/>
<path d="m840 0v18"/>
<path d="m852 0v18"/>
<path d="m864 0v18"/>
<path d="m876 0v18"/>
<path d="m888 0v18"/>
<path d="m900 0v18"/>
<path d="m912 0v18"/>
<path d="m924 0v18"/>
<path d="m936 0v18"/>
<path d="m948 0v18"/>
<path d="m960 0v18"/>
</g>
</svg>
